<svg width="28" height="21" viewBox="0 0 28 21" fill="none" xmlns="http://www.w3.org/2000/svg">
<path fill-rule="evenodd" clip-rule="evenodd" d="M24.5 1.75H3.5C3.03587 1.75 2.59075 1.93437 2.26256 2.26256C1.93437 2.59075 1.75 3.03587 1.75 3.5V17.5C1.75 17.9641 1.93437 18.4092 2.26256 18.7374C2.59075 19.0656 3.03587 19.25 3.5 19.25H24.5C24.9641 19.25 25.4092 19.0656 25.7374 18.7374C26.0656 18.4092 26.25 17.9641 26.25 17.5V3.5C26.25 3.03587 26.0656 2.59075 25.7374 2.26256C25.4092 1.93437 24.9641 1.75 24.5 1.75ZM3.5 0C2.57174 0 1.6815 0.368749 1.02513 1.02513C0.368749 1.6815 0 2.57174 0 3.5L0 17.5C0 18.4283 0.368749 19.3185 1.02513 19.9749C1.6815 20.6313 2.57174 21 3.5 21H24.5C25.4283 21 26.3185 20.6313 26.9749 19.9749C27.6313 19.3185 28 18.4283 28 17.5V3.5C28 2.57174 27.6313 1.6815 26.9749 1.02513C26.3185 0.368749 25.4283 0 24.5 0H3.5Z" fill="#192965"/>
<path d="M7 12.25H5.25C4.2835 12.25 3.5 13.0335 3.5 14V15.75C3.5 16.7165 4.2835 17.5 5.25 17.5H7C7.9665 17.5 8.75 16.7165 8.75 15.75V14C8.75 13.0335 7.9665 12.25 7 12.25Z" fill="#192965"/>
<path d="M1.75 5.25H26.25V8.75H1.75V5.25Z" fill="#192965"/>
</svg>
