<svg width="40" height="32" viewBox="0 0 40 32" fill="none" xmlns="http://www.w3.org/2000/svg">
<g clip-path="url(#clip0)">
<path d="M7.27498 30.9395V28.8815C7.27498 28.0924 6.79467 27.578 5.97139 27.578C5.55982 27.578 5.11389 27.7152 4.80514 28.1612C4.56514 27.7838 4.22217 27.578 3.70764 27.578C3.36451 27.578 3.0217 27.6809 2.74717 28.0582V27.6466H2.02686V30.9395H2.74717V29.1215C2.74717 28.5385 3.05592 28.264 3.53623 28.264C4.01623 28.264 4.25654 28.5727 4.25654 29.1215V30.9395H4.97686V29.1215C4.97686 28.5385 5.31967 28.264 5.76561 28.264C6.24592 28.264 6.48592 28.5727 6.48592 29.1215V30.9395H7.27498ZM17.9423 27.6466H16.7762V26.652H16.0559V27.6466H15.4042V28.2982H16.0558V29.8076C16.0558 30.5623 16.3645 31.008 17.1878 31.008C17.4965 31.008 17.8394 30.9052 18.0797 30.768L17.8737 30.1505C17.6679 30.2877 17.4279 30.3221 17.2564 30.3221C16.9134 30.3221 16.7762 30.1163 16.7762 29.7732V28.2982H17.9423V27.6466ZM24.0479 27.5779C23.6364 27.5779 23.362 27.7838 23.1905 28.0582V27.6466H22.4701V30.9395H23.1905V29.0873C23.1905 28.5385 23.4305 28.2298 23.8764 28.2298C24.0136 28.2298 24.1851 28.2641 24.3223 28.2984L24.5281 27.6124C24.3909 27.578 24.1851 27.578 24.0479 27.578V27.5779ZM14.8211 27.921C14.4779 27.6809 13.9978 27.578 13.4833 27.578C12.6601 27.578 12.1114 27.9896 12.1114 28.6413C12.1114 29.1902 12.523 29.4988 13.2433 29.6018L13.5862 29.6362C13.9636 29.7046 14.1694 29.8076 14.1694 29.9791C14.1694 30.2191 13.895 30.3907 13.4147 30.3907C12.9345 30.3907 12.5572 30.2191 12.317 30.0477L11.974 30.5965C12.3514 30.8709 12.8659 31.008 13.3803 31.008C14.3408 31.008 14.8897 30.5623 14.8897 29.9448C14.8897 29.3616 14.4437 29.0529 13.7576 28.9501L13.4147 28.9157C13.1059 28.8813 12.8659 28.8129 12.8659 28.6071C12.8659 28.367 13.1059 28.2298 13.4833 28.2298C13.895 28.2298 14.3065 28.4012 14.5123 28.5041L14.8211 27.921ZM33.9609 27.578C33.5492 27.578 33.2748 27.7838 33.1033 28.0582V27.6466H32.3829V30.9395H33.1033V29.0873C33.1033 28.5385 33.3434 28.2298 33.7892 28.2298C33.9265 28.2298 34.0981 28.2641 34.2353 28.2984L34.4411 27.6124C34.3039 27.578 34.0981 27.578 33.9609 27.578ZM24.7683 29.293C24.7683 30.2877 25.4542 31.008 26.5176 31.008C26.9978 31.008 27.3408 30.9052 27.6837 30.6309L27.3408 30.0477C27.0664 30.2535 26.792 30.3563 26.4833 30.3563C25.9001 30.3563 25.4886 29.9448 25.4886 29.293C25.4886 28.6757 25.9001 28.264 26.4833 28.2298C26.792 28.2298 27.0664 28.3326 27.3408 28.5385L27.6837 27.9554C27.3408 27.6809 26.9978 27.578 26.5176 27.578C25.4542 27.578 24.7683 28.2984 24.7683 29.293ZM31.4226 29.293V27.6466H30.7023V28.0582C30.4622 27.7496 30.1192 27.578 29.6733 27.578C28.7472 27.578 28.0269 28.2984 28.0269 29.293C28.0269 30.2877 28.7472 31.008 29.6733 31.008C30.1534 31.008 30.4965 30.8366 30.7023 30.5279V30.9395H31.4226V29.293ZM28.7814 29.293C28.7814 28.7099 29.1587 28.2298 29.7761 28.2298C30.3592 28.2298 30.7709 28.6757 30.7709 29.293C30.7709 29.8762 30.3592 30.3563 29.7761 30.3563C29.1587 30.322 28.7814 29.8762 28.7814 29.293ZM20.172 27.578C19.2115 27.578 18.5254 28.264 18.5254 29.293C18.5254 30.3221 19.2114 31.008 20.2062 31.008C20.6864 31.008 21.1667 30.8709 21.544 30.5623L21.2009 30.0477C20.9265 30.2535 20.5836 30.3907 20.2406 30.3907C19.7947 30.3907 19.3487 30.1849 19.2458 29.6016H21.6812V29.3274C21.7156 28.264 21.0981 27.578 20.1719 27.578H20.172ZM20.172 28.1954C20.6178 28.1954 20.9267 28.4699 20.9951 28.9845H19.2801C19.3487 28.5385 19.6575 28.1954 20.172 28.1954ZM38.0426 29.293V26.3432H37.3223V28.0582C37.0822 27.7496 36.7392 27.578 36.2933 27.578C35.3672 27.578 34.6469 28.2984 34.6469 29.293C34.6469 30.2877 35.3672 31.008 36.2933 31.008C36.7736 31.008 37.1165 30.8366 37.3223 30.5279V30.9395H38.0426V29.293ZM35.4015 29.293C35.4015 28.7099 35.7787 28.2298 36.3962 28.2298C36.9794 28.2298 37.3909 28.6757 37.3909 29.293C37.3909 29.8762 36.9794 30.3563 36.3962 30.3563C35.7787 30.322 35.4015 29.8762 35.4015 29.293ZM11.3223 29.293V27.6466H10.602V28.0582C10.3619 27.7496 10.0189 27.578 9.57295 27.578C8.64686 27.578 7.92654 28.2984 7.92654 29.293C7.92654 30.2877 8.64686 31.008 9.57295 31.008C10.0533 31.008 10.3962 30.8366 10.602 30.5279V30.9395H11.3223V29.293ZM8.64686 29.293C8.64686 28.7099 9.0242 28.2298 9.64154 28.2298C10.2247 28.2298 10.6364 28.6757 10.6364 29.293C10.6364 29.8762 10.2247 30.3563 9.64154 30.3563C9.0242 30.322 8.64686 29.8762 8.64686 29.293Z" fill="black"/>
<path d="M14.5797 2.63577H25.3844V22.05H14.5797V2.63577Z" fill="#FF5F00"/>
<path d="M15.2649 12.347C15.2649 8.40249 17.1171 4.90374 19.9639 2.63984C17.8718 0.993432 15.2307 -0.00125504 12.3494 -0.00125504C5.52332 -0.00125504 0.000976562 5.52109 0.000976562 12.347C0.000976562 19.1728 5.52332 24.6953 12.3493 24.6953C15.2305 24.6953 17.8716 23.7006 19.9639 22.0541C17.1171 19.8245 15.2649 16.2916 15.2649 12.347Z" fill="#EB001B"/>
<path d="M39.9575 12.3472C39.9575 19.173 34.4351 24.6955 27.6092 24.6955C24.7279 24.6955 22.0869 23.7008 19.9945 22.0543C22.8758 19.7905 24.6937 16.2918 24.6937 12.3472C24.6937 8.40271 22.8414 4.90396 19.9945 2.64005C22.0867 0.993646 24.7279 -0.00104141 27.6092 -0.00104141C34.4351 -0.00104141 39.9576 5.55568 39.9576 12.3472H39.9575Z" fill="#F79E1B"/>
</g>
<defs>
<clipPath id="clip0">
<rect width="40" height="31.0937" fill="white"/>
</clipPath>
</defs>
</svg>
