<svg width="29" height="30" viewBox="0 0 29 30" fill="none" xmlns="http://www.w3.org/2000/svg">
<path d="M12 0L22.947 3.42C23.2523 3.51531 23.5192 3.70572 23.7086 3.96343C23.898 4.22114 24.0001 4.53266 24 4.8525V7.5H27C27.3978 7.5 27.7794 7.65804 28.0607 7.93934C28.342 8.22064 28.5 8.60218 28.5 9V21C28.5 21.3978 28.342 21.7794 28.0607 22.0607C27.7794 22.342 27.3978 22.5 27 22.5L22.17 22.5015C21.5895 23.2665 20.8845 23.9415 20.07 24.4965L12 30L3.93 24.498C2.71878 23.6722 1.72763 22.563 1.04271 21.2669C0.357792 19.9708 -0.000151834 18.527 4.83148e-08 17.061V4.8525C0.000180909 4.53291 0.10243 4.22174 0.291843 3.96433C0.481257 3.70692 0.747932 3.51674 1.053 3.4215L12 0ZM12 3.141L3 5.955V17.061C2.99979 17.9793 3.21038 18.8855 3.61555 19.7096C4.02072 20.5337 4.60966 21.2539 5.337 21.8145L5.6205 22.0185L12 26.37L17.673 22.5H10.5C10.1022 22.5 9.72064 22.342 9.43934 22.0607C9.15804 21.7794 9 21.3978 9 21V9C9 8.60218 9.15804 8.22064 9.43934 7.93934C9.72064 7.65804 10.1022 7.5 10.5 7.5H21V5.955L12 3.141ZM12 15V19.5H25.5V15H12ZM12 12H25.5V10.5H12V12Z" fill="#8391A7"/>
</svg>
